<svg id="svg" version="1.1" xmlns="http://www.w3.org/2000/svg" xmlns:xlink="http://www.w3.org/1999/xlink" width="400" height="210.99389228206553" viewBox="0, 0, 400,210.99389228206553"><g id="svgg"><path id="path0" d="M0.193 104.538 C 0.184 162.034,0.144 209.314,0.106 209.604 C 0.067 209.894,0.081 210.298,0.137 210.501 C 0.258 210.936,399.679 211.094,399.824 210.660 C 399.863 210.544,399.871 163.098,399.841 105.224 L 399.788 0.000 200.000 0.000 L 0.211 0.000 0.193 104.538 M293.634 81.758 C 294.146 82.028,294.850 82.653,295.198 83.148 L 295.831 84.047 295.831 105.541 L 295.831 127.035 295.198 127.934 C 294.850 128.428,294.146 129.054,293.634 129.324 L 292.704 129.815 271.728 129.815 C 249.002 129.815,249.949 129.861,248.682 128.697 C 247.328 127.452,247.398 128.703,247.392 105.587 C 247.387 82.880,247.342 83.827,248.506 82.561 C 249.751 81.206,248.493 81.276,271.682 81.271 L 292.704 81.266 293.634 81.758 M256.781 88.127 C 256.317 88.292,255.587 88.799,255.160 89.255 C 251.533 93.126,257.124 98.684,260.968 95.028 C 264.157 91.996,260.922 86.662,256.781 88.127 M111.451 101.844 L 111.451 115.245 118.575 115.301 L 125.699 115.356 125.757 118.997 L 125.815 122.639 114.939 122.639 L 104.063 122.639 104.063 105.541 L 104.063 88.443 107.757 88.443 L 111.451 88.443 111.451 101.844 M175.460 98.472 L 175.515 108.500 176.992 106.776 C 177.805 105.828,178.992 104.421,179.631 103.649 C 180.269 102.877,181.311 101.657,181.947 100.938 L 183.102 99.631 187.398 99.631 C 190.949 99.631,191.681 99.681,191.625 99.923 C 191.563 100.190,188.572 103.528,183.794 108.663 C 182.205 110.371,181.979 110.703,182.210 110.988 C 182.359 111.172,183.655 112.705,185.091 114.394 C 190.556 120.827,191.873 122.405,191.873 122.520 C 191.873 122.585,189.979 122.639,187.663 122.639 L 183.453 122.639 179.484 117.685 L 175.515 112.732 175.458 117.685 L 175.401 122.639 171.711 122.639 L 168.021 122.639 168.021 105.541 L 168.021 88.443 171.713 88.443 L 175.405 88.443 175.460 98.472 M240.633 105.541 L 240.633 122.639 237.361 122.639 L 234.090 122.639 234.090 121.564 L 234.090 120.490 233.404 121.069 C 230.329 123.665,224.273 123.633,220.418 121.000 C 214.847 117.195,214.817 105.529,220.366 101.444 C 224.027 98.749,229.545 98.659,232.411 101.247 L 233.245 102.002 233.245 95.222 L 233.245 88.443 236.939 88.443 L 240.633 88.443 240.633 105.541 M135.292 89.130 C 137.342 90.214,138.174 92.643,137.155 94.565 C 135.081 98.476,129.182 97.133,129.182 92.750 C 129.182 89.663,132.539 87.674,135.292 89.130 M158.161 99.733 C 163.084 101.016,164.011 103.461,164.011 115.164 L 164.011 122.639 160.332 122.639 L 156.653 122.639 156.585 115.515 C 156.517 108.398,156.517 108.389,155.989 107.346 C 154.518 104.435,150.624 104.691,149.097 107.799 L 148.496 109.024 148.432 115.831 L 148.369 122.639 144.684 122.639 L 140.999 122.639 141.054 111.187 L 141.108 99.736 144.274 99.736 L 147.441 99.736 147.504 101.071 L 147.567 102.405 148.391 101.660 C 150.648 99.621,154.679 98.826,158.161 99.733 M207.575 100.439 C 210.865 102.069,212.744 104.591,213.542 108.450 C 213.873 110.050,213.862 113.413,213.525 113.959 C 213.421 114.127,211.048 114.195,205.370 114.195 C 200.965 114.195,197.361 114.247,197.361 114.309 C 197.361 114.372,197.551 114.794,197.782 115.247 C 199.314 118.250,203.899 118.657,207.313 116.091 C 208.220 115.410,208.462 115.315,208.754 115.525 C 209.923 116.367,212.770 118.720,212.770 118.844 C 212.770 120.161,208.086 122.428,204.448 122.873 C 197.072 123.774,191.995 120.321,190.733 113.546 C 189.203 105.326,194.431 99.324,202.982 99.484 L 205.752 99.536 207.575 100.439 M136.992 111.135 L 136.992 122.639 133.298 122.639 L 129.604 122.639 129.604 111.275 C 129.604 105.026,129.668 99.849,129.745 99.771 C 129.822 99.694,131.485 99.631,133.439 99.631 L 136.992 99.631 136.992 111.135 M277.784 99.920 C 276.035 100.302,274.671 101.085,273.532 102.363 L 272.507 103.514 272.507 101.784 L 272.507 100.053 269.340 100.053 L 266.174 100.053 266.174 111.240 L 266.174 122.427 269.551 122.427 L 272.929 122.427 272.929 116.133 C 272.929 107.092,273.724 105.350,277.857 105.334 C 281.301 105.322,281.791 106.695,281.793 116.359 L 281.794 122.427 285.194 122.427 L 288.594 122.427 288.495 114.459 C 288.386 105.737,288.281 104.917,286.997 102.725 C 285.566 100.284,281.619 99.082,277.784 99.920 M254.776 111.240 L 254.776 122.427 258.153 122.427 L 261.530 122.427 261.530 111.240 L 261.530 100.053 258.153 100.053 L 254.776 100.053 254.776 111.240 M200.237 104.996 C 198.949 105.472,197.361 107.276,197.361 108.264 C 197.361 108.426,198.829 108.496,202.216 108.496 C 207.689 108.496,207.519 108.558,206.557 106.917 C 205.427 104.989,202.591 104.127,200.237 104.996 M226.385 105.519 C 222.502 107.317,222.236 114.905,225.992 116.750 C 229.726 118.584,233.412 115.946,233.445 111.416 C 233.477 106.938,229.855 103.912,226.385 105.519 " stroke="none" fill="#134a7a" fill-rule="evenodd"></path><path id="path1" d="M250.163 81.703 C 247.412 82.805,247.599 81.070,247.599 105.541 C 247.599 129.967,247.424 128.214,249.975 129.280 C 251.070 129.737,292.164 129.775,293.255 129.319 C 294.158 128.942,295.226 127.700,295.502 126.708 C 295.811 125.595,295.808 85.478,295.499 84.365 C 295.198 83.278,293.971 81.960,293.014 81.694 C 292.004 81.414,250.864 81.423,250.163 81.703 M259.963 88.148 C 263.540 89.846,263.209 94.963,259.441 96.224 C 256.314 97.271,253.062 94.204,253.921 91.016 C 254.593 88.520,257.669 87.060,259.963 88.148 M104.372 88.707 C 104.316 88.852,104.295 96.522,104.325 105.752 L 104.380 122.533 114.934 122.533 L 125.488 122.533 125.488 119.050 L 125.488 115.567 118.364 115.512 L 111.240 115.456 111.240 101.950 L 111.240 88.443 107.856 88.443 C 105.343 88.443,104.446 88.511,104.372 88.707 M168.232 105.541 L 168.232 122.639 171.715 122.639 L 175.198 122.639 175.198 117.455 C 175.198 114.556,175.279 112.321,175.382 112.384 C 175.483 112.447,177.253 114.614,179.314 117.199 C 184.184 123.307,183.144 122.639,187.781 122.639 C 189.916 122.639,191.662 122.585,191.662 122.519 C 191.662 122.454,190.345 120.863,188.736 118.984 C 187.127 117.105,184.897 114.485,183.781 113.161 L 181.753 110.755 182.410 109.995 C 183.663 108.546,188.608 103.108,190.026 101.621 C 190.810 100.799,191.451 100.062,191.451 99.984 C 191.451 99.906,189.574 99.842,187.279 99.842 L 183.107 99.842 181.280 102.005 C 176.677 107.455,175.618 108.683,175.415 108.809 C 175.267 108.900,175.198 105.670,175.198 98.693 L 175.198 88.443 171.715 88.443 L 168.232 88.443 168.232 105.541 M233.456 95.298 C 233.456 99.074,233.397 102.164,233.324 102.164 C 233.251 102.164,232.811 101.820,232.347 101.401 C 229.953 99.238,224.805 99.001,221.485 100.901 C 215.435 104.362,214.487 115.388,219.819 120.278 C 223.317 123.486,229.816 123.752,233.378 120.833 L 234.279 120.095 234.343 121.314 L 234.406 122.533 237.361 122.533 L 240.317 122.533 240.317 105.541 L 240.317 88.549 236.887 88.491 L 233.456 88.433 233.456 95.298 M132.064 88.962 C 128.372 90.279,128.612 95.658,132.411 96.696 C 135.445 97.525,138.321 94.153,137.021 91.291 C 136.105 89.276,133.982 88.278,132.064 88.962 M282.186 99.640 C 284.589 100.030,286.656 101.395,287.596 103.213 C 288.499 104.959,288.627 106.361,288.641 114.617 L 288.654 122.533 285.119 122.591 L 281.583 122.649 281.579 116.575 C 281.572 106.256,280.909 104.695,276.891 105.529 C 273.674 106.197,273.272 107.294,273.140 115.778 L 273.034 122.533 269.499 122.591 L 265.963 122.649 265.963 111.245 L 265.963 99.842 269.340 99.842 L 272.718 99.842 272.718 101.348 L 272.718 102.855 273.745 101.894 C 276.019 99.767,278.644 99.066,282.186 99.640 M152.035 99.956 C 150.364 100.406,148.942 101.207,148.131 102.154 C 147.234 103.202,147.124 103.106,147.124 101.278 L 147.124 99.830 144.222 99.889 L 141.319 99.947 141.319 111.240 L 141.319 122.533 144.697 122.533 L 148.074 122.533 148.185 115.884 C 148.290 109.601,148.322 109.169,148.776 108.034 C 150.162 104.564,154.794 104.103,156.229 107.292 C 156.710 108.362,156.725 108.577,156.796 115.520 L 156.868 122.649 160.281 122.591 L 163.694 122.533 163.692 114.617 C 163.689 105.135,163.448 103.744,161.460 101.756 C 159.599 99.895,155.305 99.075,152.035 99.956 M199.261 99.961 C 188.480 102.296,187.500 118.419,197.906 122.253 C 201.784 123.681,208.596 122.503,211.564 119.891 C 212.833 118.774,212.881 118.915,210.668 117.274 C 209.628 116.502,208.718 115.776,208.647 115.661 C 208.572 115.540,208.243 115.682,207.870 115.996 C 204.445 118.878,199.162 118.479,197.449 115.208 C 196.775 113.921,196.373 113.984,205.260 113.984 L 213.370 113.984 213.518 112.599 C 214.454 103.866,207.930 98.084,199.261 99.961 M129.912 100.106 C 129.857 100.251,129.836 105.356,129.866 111.451 L 129.921 122.533 133.351 122.591 L 136.781 122.649 136.781 111.245 L 136.781 99.842 133.397 99.842 C 130.885 99.842,129.987 99.910,129.912 100.106 M261.741 111.240 L 261.741 122.639 258.153 122.639 L 254.565 122.639 254.565 111.240 L 254.565 99.842 258.153 99.842 L 261.741 99.842 261.741 111.240 M204.433 104.880 C 206.016 105.601,206.883 106.588,207.379 108.232 L 207.522 108.707 202.245 108.707 L 196.969 108.707 197.148 108.083 C 197.951 105.282,201.699 103.634,204.433 104.880 M229.975 105.257 C 233.125 106.331,234.668 111.205,232.958 114.686 C 230.919 118.839,224.746 118.326,223.424 113.893 C 221.828 108.544,225.482 103.726,229.975 105.257 " stroke="none" fill="#fafafb" fill-rule="evenodd"></path><path id="path2" d="M0.105 90.237 C 0.105 139.926,0.129 160.222,0.158 135.339 C 0.188 110.456,0.188 69.802,0.158 44.996 C 0.129 20.190,0.105 40.549,0.105 90.237 M399.893 90.132 C 399.893 139.763,399.918 160.066,399.947 135.251 C 399.977 110.435,399.977 69.828,399.947 45.013 C 399.918 20.198,399.893 40.501,399.893 90.132 M261.388 81.425 C 267.057 81.456,276.270 81.456,281.863 81.425 C 287.456 81.393,282.818 81.368,271.557 81.368 C 260.296 81.368,255.720 81.394,261.388 81.425 M247.489 105.541 C 247.489 116.976,247.515 121.654,247.546 115.937 C 247.577 110.219,247.577 100.863,247.546 95.145 C 247.515 89.427,247.489 94.106,247.489 105.541 M111.340 102.058 C 111.340 109.488,111.366 112.497,111.398 108.745 C 111.431 104.992,111.431 98.913,111.398 95.235 C 111.366 91.558,111.340 94.628,111.340 102.058 M168.122 105.541 C 168.122 114.887,168.148 118.710,168.179 114.037 C 168.211 109.364,168.211 101.718,168.179 97.045 C 168.148 92.372,168.122 96.195,168.122 105.541 M233.295 95.287 L 233.245 102.026 232.665 101.520 L 232.084 101.015 232.659 101.631 C 233.483 102.516,233.468 102.647,233.404 95.283 L 233.345 88.549 233.295 95.287 M135.515 89.354 C 135.515 89.390,135.823 89.699,136.201 90.040 L 136.887 90.660 136.267 89.974 C 135.689 89.334,135.515 89.191,135.515 89.354 M253.769 92.032 C 253.769 92.438,253.813 92.604,253.866 92.401 C 253.919 92.198,253.919 91.865,253.866 91.662 C 253.813 91.459,253.769 91.625,253.769 92.032 M262.424 92.032 C 262.424 92.438,262.467 92.604,262.520 92.401 C 262.573 92.198,262.573 91.865,262.520 91.662 C 262.467 91.459,262.424 91.625,262.424 92.032 M129.235 92.770 C 129.238 93.235,129.281 93.400,129.331 93.137 C 129.382 92.875,129.380 92.495,129.327 92.293 C 129.274 92.091,129.233 92.306,129.235 92.770 M154.356 99.571 C 154.677 99.620,155.152 99.618,155.412 99.568 C 155.671 99.518,155.409 99.478,154.828 99.480 C 154.248 99.481,154.036 99.522,154.356 99.571 M202.061 99.571 C 202.382 99.620,202.857 99.618,203.116 99.568 C 203.376 99.518,203.113 99.478,202.533 99.480 C 201.953 99.481,201.740 99.522,202.061 99.571 M226.438 99.568 C 226.699 99.619,227.127 99.619,227.388 99.568 C 227.649 99.518,227.435 99.477,226.913 99.477 C 226.391 99.477,226.177 99.518,226.438 99.568 M279.204 99.572 C 279.578 99.619,280.243 99.619,280.681 99.574 C 281.119 99.528,280.813 99.490,280.000 99.489 C 279.187 99.488,278.829 99.525,279.204 99.572 M136.879 111.135 C 136.879 117.404,136.906 119.938,136.939 116.766 C 136.972 113.594,136.972 108.465,136.939 105.368 C 136.906 102.270,136.879 104.865,136.879 111.135 M147.166 101.254 C 147.126 102.692,147.333 103.313,147.670 102.768 C 147.763 102.617,147.731 102.577,147.588 102.665 C 147.427 102.765,147.331 102.331,147.281 101.273 L 147.208 99.736 147.166 101.254 M189.551 102.058 C 189.039 102.580,188.667 103.008,188.725 103.008 C 188.783 103.008,189.250 102.580,189.763 102.058 C 190.275 101.536,190.647 101.108,190.589 101.108 C 190.531 101.108,190.064 101.536,189.551 102.058 M210.343 102.586 C 210.796 103.050,211.215 103.430,211.273 103.430 C 211.331 103.430,211.008 103.050,210.554 102.586 C 210.101 102.121,209.682 101.741,209.624 101.741 C 209.566 101.741,209.890 102.121,210.343 102.586 M187.533 104.327 L 186.913 105.013 187.599 104.393 C 187.976 104.052,188.285 103.744,188.285 103.707 C 188.285 103.544,188.111 103.688,187.533 104.327 M185.000 107.071 L 184.380 107.757 185.066 107.137 C 185.443 106.796,185.752 106.488,185.752 106.451 C 185.752 106.288,185.578 106.432,185.000 107.071 M288.549 115.504 C 288.491 119.417,288.516 122.545,288.605 122.456 C 288.693 122.368,288.741 119.166,288.710 115.343 L 288.654 108.391 288.549 115.504 M156.717 115.989 C 156.716 119.588,156.745 121.090,156.781 119.327 C 156.816 117.564,156.816 114.619,156.781 112.784 C 156.745 110.948,156.717 112.391,156.717 115.989 M273.022 116.306 C 273.022 119.731,273.051 121.132,273.087 119.420 C 273.122 117.707,273.122 114.905,273.087 113.193 C 273.051 111.480,273.022 112.881,273.022 116.306 M227.918 117.511 C 228.181 117.561,228.561 117.559,228.762 117.507 C 228.964 117.454,228.749 117.412,228.285 117.415 C 227.821 117.417,227.655 117.460,227.918 117.511 M193.351 119.327 C 193.351 119.364,193.660 119.672,194.037 120.013 L 194.723 120.633 194.103 119.947 C 193.525 119.308,193.351 119.164,193.351 119.327 M219.314 120.000 C 219.708 120.406,220.078 120.739,220.136 120.739 C 220.194 120.739,219.919 120.406,219.525 120.000 C 219.131 119.594,218.762 119.261,218.703 119.261 C 218.645 119.261,218.920 119.594,219.314 120.000 M294.340 128.602 L 293.720 129.288 294.406 128.668 C 295.046 128.090,295.189 127.916,295.026 127.916 C 294.990 127.916,294.681 128.224,294.340 128.602 M261.372 129.762 C 267.032 129.794,276.293 129.794,281.953 129.762 C 287.612 129.731,282.982 129.706,271.662 129.706 C 260.343 129.706,255.712 129.731,261.372 129.762 M399.838 207.282 C 399.838 207.689,399.881 207.855,399.934 207.652 C 399.988 207.449,399.988 207.116,399.934 206.913 C 399.881 206.710,399.838 206.876,399.838 207.282 M0.138 210.923 C 0.266 211.131,399.734 211.131,399.862 210.923 C 399.916 210.836,309.978 210.765,200.000 210.765 C 90.022 210.765,0.084 210.836,0.138 210.923 " stroke="none" fill="#8ca4bc" fill-rule="evenodd"></path><path id="path3" d="M175.245 98.522 C 175.219 104.124,175.269 108.707,175.356 108.707 C 175.500 108.707,175.497 101.117,175.350 91.926 C 175.319 89.953,175.271 92.921,175.245 98.522 M240.523 105.541 C 240.523 115.003,240.549 118.873,240.580 114.142 C 240.612 109.412,240.612 101.670,240.580 96.939 C 240.549 92.208,240.523 96.079,240.523 105.541 M137.475 92.770 C 137.476 93.351,137.517 93.563,137.566 93.242 C 137.614 92.922,137.613 92.447,137.563 92.187 C 137.513 91.927,137.473 92.190,137.475 92.770 M260.989 95.040 L 260.369 95.726 261.055 95.106 C 261.695 94.528,261.838 94.354,261.675 94.354 C 261.639 94.354,261.330 94.662,260.989 95.040 M129.742 99.789 C 129.688 99.876,130.751 99.922,132.104 99.892 C 136.644 99.790,137.125 99.712,133.469 99.671 C 131.473 99.649,129.796 99.702,129.742 99.789 M141.144 99.783 C 141.088 99.873,142.458 99.919,144.189 99.884 L 147.335 99.821 147.335 101.321 C 147.335 102.146,147.406 102.778,147.493 102.724 C 147.580 102.670,147.604 101.976,147.546 101.181 L 147.441 99.736 144.343 99.678 C 142.639 99.646,141.200 99.693,141.144 99.783 M182.671 100.106 C 182.270 100.579,182.270 100.579,182.703 100.216 C 183.077 99.901,183.729 99.842,187.452 99.789 L 191.768 99.727 187.421 99.679 C 183.144 99.631,183.067 99.638,182.671 100.106 M256.412 99.999 C 257.369 100.038,258.937 100.038,259.894 99.999 C 260.852 99.960,260.069 99.928,258.153 99.928 C 256.237 99.928,255.454 99.960,256.412 99.999 M266.060 100.106 C 266.004 100.251,265.984 105.356,266.016 111.451 L 266.072 122.533 266.123 111.298 L 266.174 100.064 269.393 100.000 L 272.612 99.935 269.387 99.889 C 266.965 99.853,266.136 99.907,266.060 100.106 M219.195 102.427 L 218.575 103.113 219.261 102.493 C 219.639 102.153,219.947 101.844,219.947 101.807 C 219.947 101.644,219.773 101.788,219.195 102.427 M210.026 102.019 C 210.026 102.055,210.335 102.364,210.712 102.705 L 211.398 103.325 210.778 102.639 C 210.201 101.999,210.026 101.855,210.026 102.019 M184.581 107.704 L 183.747 108.602 184.644 107.767 C 185.478 106.991,185.638 106.807,185.478 106.807 C 185.444 106.807,185.040 107.211,184.581 107.704 M288.395 107.652 C 288.395 108.174,288.436 108.388,288.487 108.127 C 288.537 107.865,288.537 107.438,288.487 107.177 C 288.436 106.916,288.395 107.129,288.395 107.652 M197.167 108.338 C 197.152 108.680,197.526 108.707,202.216 108.707 C 206.907 108.707,207.281 108.680,207.266 108.338 C 207.256 108.117,207.206 108.075,207.143 108.232 C 207.062 108.432,205.875 108.496,202.216 108.496 C 198.558 108.496,197.371 108.432,197.290 108.232 C 197.227 108.075,197.177 108.117,197.167 108.338 M213.690 111.135 C 213.689 112.179,213.725 112.633,213.769 112.144 C 213.813 111.654,213.814 110.799,213.770 110.244 C 213.727 109.689,213.690 110.090,213.690 111.135 M190.465 110.923 C 190.466 111.736,190.504 112.043,190.550 111.605 C 190.596 111.167,190.595 110.502,190.548 110.127 C 190.501 109.752,190.464 110.111,190.465 110.923 M281.677 116.095 C 281.677 119.636,281.706 121.084,281.741 119.314 C 281.776 117.544,281.776 114.646,281.741 112.876 C 281.706 111.106,281.677 112.554,281.677 116.095 M216.205 111.240 C 216.205 111.763,216.246 111.976,216.297 111.715 C 216.347 111.454,216.347 111.026,216.297 110.765 C 216.246 110.504,216.205 110.718,216.205 111.240 M175.289 117.573 C 175.289 120.417,175.319 121.580,175.356 120.158 C 175.392 118.736,175.392 116.409,175.356 114.987 C 175.319 113.565,175.289 114.728,175.289 117.573 M213.404 113.632 C 213.404 113.955,212.729 113.984,205.395 113.984 C 200.990 113.984,197.342 114.055,197.288 114.142 C 197.235 114.230,200.842 114.275,205.306 114.243 C 213.524 114.185,214.236 114.113,213.535 113.412 C 213.463 113.340,213.404 113.439,213.404 113.632 M118.570 115.407 L 125.584 115.467 125.649 119.000 L 125.714 122.533 125.707 118.945 L 125.699 115.356 118.628 115.352 L 111.557 115.347 118.570 115.407 M234.043 121.214 C 234.157 122.692,234.250 122.819,234.276 121.530 C 234.290 120.863,234.227 120.317,234.137 120.317 C 234.047 120.317,234.004 120.720,234.043 121.214 M201.425 123.003 C 201.860 123.049,202.573 123.049,203.008 123.003 C 203.443 122.958,203.087 122.921,202.216 122.921 C 201.346 122.921,200.989 122.958,201.425 123.003 M226.860 123.002 C 227.237 123.049,227.855 123.049,228.232 123.002 C 228.609 122.955,228.301 122.917,227.546 122.917 C 226.792 122.917,226.483 122.955,226.860 123.002 M399.842 198.100 C 399.844 198.565,399.888 198.730,399.938 198.467 C 399.989 198.205,399.987 197.825,399.934 197.623 C 399.881 197.421,399.840 197.636,399.842 198.100 M0.049 204.327 C 0.049 204.734,0.092 204.900,0.146 204.697 C 0.199 204.493,0.199 204.161,0.146 203.958 C 0.092 203.755,0.049 203.921,0.049 204.327 M399.846 205.172 C 399.846 205.694,399.888 205.908,399.938 205.646 C 399.988 205.385,399.988 204.958,399.938 204.697 C 399.888 204.435,399.846 204.649,399.846 205.172 M0.049 205.805 C 0.049 206.211,0.092 206.377,0.146 206.174 C 0.199 205.971,0.199 205.639,0.146 205.435 C 0.092 205.232,0.049 205.398,0.049 205.805 " stroke="none" fill="#5b7ba0" fill-rule="evenodd"></path><path id="path4" d="M295.827 105.541 C 295.827 116.744,295.853 121.327,295.884 115.726 C 295.915 110.124,295.915 100.958,295.884 95.356 C 295.853 89.755,295.827 94.338,295.827 105.541 M104.164 105.541 C 104.164 114.887,104.190 118.710,104.222 114.037 C 104.253 109.364,104.253 101.718,104.222 97.045 C 104.190 92.372,104.164 96.195,104.164 105.541 M129.703 111.240 C 129.703 117.451,129.729 119.992,129.762 116.887 C 129.795 113.781,129.795 108.699,129.762 105.594 C 129.729 102.488,129.703 105.029,129.703 111.240 M141.101 111.240 C 141.101 117.451,141.128 119.992,141.161 116.887 C 141.194 113.781,141.194 108.699,141.161 105.594 C 141.128 102.488,141.101 105.029,141.101 111.240 M254.667 111.240 L 254.670 122.533 258.153 122.533 L 261.636 122.533 261.639 111.240 L 261.642 99.947 261.584 111.187 L 261.527 122.427 258.153 122.427 L 254.779 122.427 254.722 111.187 L 254.665 99.947 254.667 111.240 M272.579 101.636 C 272.580 102.565,272.617 102.918,272.661 102.422 C 272.706 101.925,272.705 101.165,272.660 100.733 C 272.615 100.301,272.578 100.707,272.579 101.636 M193.654 102.850 L 193.034 103.536 193.720 102.916 C 194.098 102.575,194.406 102.266,194.406 102.230 C 194.406 102.067,194.232 102.210,193.654 102.850 M163.894 115.356 C 163.894 119.303,163.923 120.888,163.958 118.878 C 163.992 116.868,163.992 113.639,163.957 111.702 C 163.923 109.764,163.894 111.409,163.894 115.356 M223.174 111.346 C 223.175 111.926,223.216 112.139,223.265 111.818 C 223.313 111.497,223.312 111.022,223.262 110.762 C 223.212 110.503,223.172 110.765,223.174 111.346 M148.272 116.728 C 148.272 119.921,148.301 121.227,148.337 119.631 C 148.373 118.034,148.373 115.422,148.337 113.826 C 148.301 112.230,148.272 113.536,148.272 116.728 M267.810 122.584 C 268.768 122.624,270.335 122.624,271.293 122.584 C 272.251 122.545,271.467 122.513,269.551 122.513 C 267.636 122.513,266.852 122.545,267.810 122.584 M283.440 122.585 C 284.403 122.624,285.923 122.624,286.817 122.584 C 287.712 122.545,286.923 122.513,285.066 122.513 C 283.208 122.513,282.477 122.545,283.440 122.585 M399.846 183.008 C 399.846 183.530,399.888 183.744,399.938 183.483 C 399.988 183.222,399.988 182.794,399.938 182.533 C 399.888 182.272,399.846 182.485,399.846 183.008 M399.838 184.697 C 399.838 185.103,399.881 185.269,399.934 185.066 C 399.988 184.863,399.988 184.530,399.934 184.327 C 399.881 184.124,399.838 184.290,399.838 184.697 M0.053 190.923 C 0.056 191.388,0.099 191.553,0.149 191.290 C 0.200 191.028,0.198 190.648,0.145 190.446 C 0.092 190.244,0.051 190.459,0.053 190.923 " stroke="none" fill="#7d9cb4" fill-rule="evenodd"></path></g></svg>